<svg width="24" height="24" xmlns="http://www.w3.org/2000/svg" version="1.1">
 <title>hamburger-menu</title>

 <desc>Created with Sketch.</desc>
 <g>
  <title>Layer 1</title>
  <g stroke="null" id="svg_1" fill-rule="evenodd" fill="none">
   <g stroke="null" id="svg_2" fill="#000000">
    <path stroke="null" id="svg_3" d="m2.48762,4.15841l19.02475,0c0.7505,0 1.35891,0.60841 1.35891,1.35891c0,0.7505 -0.60841,1.35891 -1.35891,1.35891l-19.02475,0c-0.7505,0 -1.35891,-0.60841 -1.35891,-1.35891c0,-0.7505 0.60841,-1.35891 1.35891,-1.35891zm0,6.79455l19.02475,0c0.7505,0 1.35891,0.60841 1.35891,1.35891c0,0.7505 -0.60841,1.35891 -1.35891,1.35891l-19.02475,0c-0.7505,0 -1.35891,-0.60841 -1.35891,-1.35891c0,-0.7505 0.60841,-1.35891 1.35891,-1.35891zm0,6.79455l19.02475,0c0.7505,0 1.35891,0.60841 1.35891,1.35891c0,0.7505 -0.60841,1.35891 -1.35891,1.35891l-19.02475,0c-0.7505,0 -1.35891,-0.60841 -1.35891,-1.35891c0,-0.7505 0.60841,-1.35891 1.35891,-1.35891z"/>
   </g>
  </g>
 </g>
</svg>