<svg width="24" height="24" xmlns="http://www.w3.org/2000/svg" clip-rule="evenodd" fill-rule="evenodd" version="1.1" xml:space="preserve">

 <g>
  <title>Layer 1</title>
  <g stroke="null" id="svg_1">
   <path stroke="null" id="svg_2" fill="black" d="m12.69387,1.57277c-0.37006,-0.37006 -0.92516,-0.37006 -1.29522,0l-11.00939,10.17674l1.29522,1.38774l1.11019,-1.11019l0,9.52913c0,0.5551 0.46258,0.92516 0.92516,0.92516l4.90334,0c0.46258,0 0.74013,-0.27755 0.74013,-0.74013l0,-6.01353l5.2734,0l0,6.01353c0,0.46258 0.37006,0.74013 0.74013,0.74013l4.90334,0c0.46258,0 0.92516,-0.37006 0.92516,-0.92516l0,-9.52913l1.11019,1.11019l1.29522,-1.38774l-10.91687,-10.17674z" class="fil0"/>
  </g>
 </g>
</svg>