<svg width="24" height="24" xmlns="http://www.w3.org/2000/svg" data-name="Layer 1">
 <title>setng cog</title>

 <g>
  <title>Layer 1</title>
  <path stroke="null" id="svg_1" d="m23.13059,10.32624c-0.18382,-0.11719 -1.63374,-0.98346 -2.2082,-1.24771l-0.71232,-1.72336c0.2114,-0.56986 0.61811,-2.16684 0.68934,-2.44487a0.76747,0.76747 0 0 0 -0.2068,-0.71232l-1.12363,-1.11674a0.76287,0.76287 0 0 0 -0.71232,-0.2068c-0.2114,0.04825 -1.83825,0.45956 -2.44487,0.68934l-1.72336,-0.71232c-0.25046,-0.55147 -1.09376,-1.96463 -1.24771,-2.2082a0.76287,0.76287 0 0 0 -0.65028,-0.36535l-1.58089,0a0.76977,0.76977 0 0 0 -0.65028,0.35846c-0.11719,0.18382 -0.98346,1.63374 -1.24771,2.2082l-1.72336,0.71232c-0.56986,-0.2114 -2.16684,-0.61811 -2.44487,-0.68934a0.76747,0.76747 0 0 0 -0.71232,0.2068l-1.11674,1.12363a0.76287,0.76287 0 0 0 -0.2068,0.71232c0.04825,0.2114 0.45956,1.83825 0.68934,2.44487l-0.71232,1.72336c-0.55147,0.25046 -1.96463,1.09376 -2.2082,1.24771a0.76287,0.76287 0 0 0 -0.36535,0.65028l0,1.5786a0.76977,0.76977 0 0 0 0.35846,0.65028c0.18382,0.11719 1.63374,0.98346 2.2082,1.24771l0.71232,1.72336c-0.2114,0.56986 -0.61811,2.16684 -0.68934,2.44487a0.76747,0.76747 0 0 0 0.2068,0.71232l1.11674,1.11674a0.76287,0.76287 0 0 0 0.71232,0.2068c0.2114,-0.04825 1.83825,-0.45956 2.44487,-0.68934l1.72336,0.71232c0.25046,0.55147 1.09376,1.96463 1.24771,2.2082a0.76287,0.76287 0 0 0 0.65717,0.36765l1.5786,0a0.76977,0.76977 0 0 0 0.65028,-0.35846c0.11719,-0.18382 0.98346,-1.63374 1.24771,-2.2082l1.72336,-0.71232c0.56986,0.2114 2.16684,0.61811 2.44487,0.68934a0.76747,0.76747 0 0 0 0.71232,-0.2068l1.11674,-1.11674a0.76287,0.76287 0 0 0 0.2068,-0.71232c-0.04825,-0.2114 -0.45956,-1.83825 -0.68934,-2.44487l0.71232,-1.72336c0.55147,-0.25046 1.96463,-1.09376 2.2082,-1.24771a0.76287,0.76287 0 0 0 0.36765,-0.65717l0,-1.58089a0.75828,0.75828 0 0 0 -0.35846,-0.65028zm-11.1306,6.44306a5.00693,5.00693 0 1 1 5.01153,-5.00234a5.01382,5.01382 0 0 1 -5.01153,5.00234z"/>
 </g>
</svg>