<svg width="27" height="27" xmlns="http://www.w3.org/2000/svg" data-name="Layer 1">
 <title>1</title>

 <g>
  <title>Layer 1</title>
  <path id="svg_1" d="m21.28974,11.94035l-0.52849,0l0,-3.89123a6.97602,6.97602 0 0 0 -6.97602,-6.97602a6.98385,6.98385 0 0 0 -6.97602,6.97602l0,3.89123l-0.52849,0a1.31534,1.31534 0 0 0 -1.31926,1.31534l0,8.61237a4.27095,4.27095 0 0 0 4.26313,4.25921l9.12129,0a4.27095,4.27095 0 0 0 4.26313,-4.26313l0,-8.61237a1.31534,1.31534 0 0 0 -1.31926,-1.31143l-0.00001,0.00001zm-6.58455,7.56323l0,1.17441a0.91996,0.91996 0 1 1 -1.836,0l0,-1.17441a1.4641,1.4641 0 1 1 1.836,0zm3.71507,-7.56323l-9.27396,0l0,-3.89123a4.63894,4.63894 0 1 1 9.27396,0l0,3.89123z" fill="#000000"/>
 </g>
</svg>